<mxfile host="app.diagrams.net" agent="Mozilla/5.0 (Windows NT 10.0; Win64; x64) AppleWebKit/537.36 (KHTML, like Gecko) Chrome/131.0.0.0 Safari/537.36" version="25.0.3">
  <diagram name="Página-1" id="v3yCODDVMGQGJTlFi4t0">
    <mxGraphModel dx="880" dy="1698" grid="1" gridSize="10" guides="1" tooltips="1" connect="1" arrows="1" fold="1" page="1" pageScale="1" pageWidth="827" pageHeight="1169" math="0" shadow="0">
      <root>
        <mxCell id="0" />
        <mxCell id="1" parent="0" />
        <mxCell id="RNwRoiy7S5sYtxj6nl0Q-1" value="frame" style="shape=umlFrame;whiteSpace=wrap;html=1;pointerEvents=0;" parent="1" vertex="1">
          <mxGeometry x="150" y="-190" width="580" height="560" as="geometry" />
        </mxCell>
        <mxCell id="RNwRoiy7S5sYtxj6nl0Q-2" style="edgeStyle=orthogonalEdgeStyle;rounded=0;orthogonalLoop=1;jettySize=auto;html=1;" parent="1" source="RNwRoiy7S5sYtxj6nl0Q-6" target="RNwRoiy7S5sYtxj6nl0Q-7" edge="1">
          <mxGeometry relative="1" as="geometry">
            <Array as="points">
              <mxPoint x="170" y="-70" />
              <mxPoint x="170" y="-130" />
            </Array>
          </mxGeometry>
        </mxCell>
        <mxCell id="RNwRoiy7S5sYtxj6nl0Q-3" style="edgeStyle=orthogonalEdgeStyle;rounded=0;orthogonalLoop=1;jettySize=auto;html=1;" parent="1" source="RNwRoiy7S5sYtxj6nl0Q-6" target="RNwRoiy7S5sYtxj6nl0Q-8" edge="1">
          <mxGeometry relative="1" as="geometry">
            <Array as="points">
              <mxPoint x="170" y="-70" />
              <mxPoint x="170" y="-40" />
            </Array>
          </mxGeometry>
        </mxCell>
        <mxCell id="RNwRoiy7S5sYtxj6nl0Q-4" style="edgeStyle=orthogonalEdgeStyle;rounded=0;orthogonalLoop=1;jettySize=auto;html=1;entryX=0;entryY=0.5;entryDx=0;entryDy=0;" parent="1" source="RNwRoiy7S5sYtxj6nl0Q-6" target="RNwRoiy7S5sYtxj6nl0Q-9" edge="1">
          <mxGeometry relative="1" as="geometry">
            <Array as="points">
              <mxPoint x="170" y="-70" />
              <mxPoint x="170" y="30" />
            </Array>
          </mxGeometry>
        </mxCell>
        <mxCell id="RNwRoiy7S5sYtxj6nl0Q-5" style="edgeStyle=orthogonalEdgeStyle;rounded=0;orthogonalLoop=1;jettySize=auto;html=1;entryX=0;entryY=0.5;entryDx=0;entryDy=0;" parent="1" source="RNwRoiy7S5sYtxj6nl0Q-6" target="RNwRoiy7S5sYtxj6nl0Q-10" edge="1">
          <mxGeometry relative="1" as="geometry">
            <Array as="points">
              <mxPoint x="170" y="-70" />
              <mxPoint x="170" y="100" />
            </Array>
          </mxGeometry>
        </mxCell>
        <mxCell id="RNwRoiy7S5sYtxj6nl0Q-6" value="operador" style="shape=umlActor;verticalLabelPosition=bottom;verticalAlign=top;html=1;" parent="1" vertex="1">
          <mxGeometry x="50" y="-100" width="30" height="60" as="geometry" />
        </mxCell>
        <mxCell id="RNwRoiy7S5sYtxj6nl0Q-7" value="Manter&lt;br&gt;Marca" style="ellipse;whiteSpace=wrap;html=1;" parent="1" vertex="1">
          <mxGeometry x="230" y="-160" width="110" height="60" as="geometry" />
        </mxCell>
        <mxCell id="RNwRoiy7S5sYtxj6nl0Q-8" value="Manter&lt;br&gt;Condição de Uso" style="ellipse;whiteSpace=wrap;html=1;" parent="1" vertex="1">
          <mxGeometry x="230" y="-80" width="110" height="60" as="geometry" />
        </mxCell>
        <mxCell id="RNwRoiy7S5sYtxj6nl0Q-9" value="Manter &lt;br&gt;Categoria" style="ellipse;whiteSpace=wrap;html=1;" parent="1" vertex="1">
          <mxGeometry x="230" width="110" height="60" as="geometry" />
        </mxCell>
        <mxCell id="RNwRoiy7S5sYtxj6nl0Q-10" value="Manter &lt;br&gt;Unidade&lt;br&gt;Medida" style="ellipse;whiteSpace=wrap;html=1;" parent="1" vertex="1">
          <mxGeometry x="215" y="70" width="125" height="60" as="geometry" />
        </mxCell>
      </root>
    </mxGraphModel>
  </diagram>
</mxfile>
